# xmcd CD database file generated by Grip 2.95
# 
# Track frame offsets:
#       150
#       14165
#       26555
#       37127
#       50760
#       69372
#       82832
#       96510
#       110540
#       130337
# 
# Disc length: 1931 seconds
# 
# Revision: 3
# Processed by: cddbd v1.4b41PL1 Copyright (c) Steve Scherf et al.
# Submitted via: Grip 2.95
# 
DISCID=8b07890a
DTITLE=Randy Travis - Storms Of Life
DYEAR=1900
DGENRE=
TTITLE0=On The Other Hand
TTITLE1=The Storms Of Life
TTITLE2=My Heart Cracked (But It Did Not Break)
TTITLE3=Diggin' Up Bones
TTITLE4=No Place Like Home
TTITLE5=1982
TTITLE6=Send My Body
TTITLE7=Messin' With My Mind
TTITLE8=Reasons I Cheat
TTITLE9=There'll Always Be A Honky Tonk Somewhere
EXTD=
EXTT0=
EXTT1=
EXTT2=
EXTT3=
EXTT4=
EXTT5=
EXTT6=
EXTT7=
EXTT8=
EXTT9=
PLAYORDER=
